<svg xmlns="http://www.w3.org/2000/svg" viewBox="0 0 32 32" width="32" height="32">
  <defs>
    <linearGradient id="gradient" x1="0%" y1="0%" x2="100%" y2="100%">
      <stop offset="0%" style="stop-color:#f9d089;stop-opacity:1" />
      <stop offset="100%" style="stop-color:#f5c878;stop-opacity:1" />
    </linearGradient>
  </defs>
  
  <!-- Background circle -->
  <circle cx="16" cy="16" r="15" fill="url(#gradient)" stroke="#1a1a1a" stroke-width="1"/>
  
  <!-- AI brain icon -->
  <g transform="translate(8, 6)">
    <!-- Brain outline -->
    <path d="M8 2C10.5 2 12.5 4 12.5 6.5C12.5 7.5 12.2 8.4 11.7 9.2C12.8 10 13.5 11.3 13.5 12.8C13.5 15.3 11.5 17.3 9 17.3H7C4.5 17.3 2.5 15.3 2.5 12.8C2.5 11.3 3.2 10 4.3 9.2C3.8 8.4 3.5 7.5 3.5 6.5C3.5 4 5.5 2 8 2Z" 
          fill="none" 
          stroke="#1a1a1a" 
          stroke-width="1.5" 
          stroke-linecap="round" 
          stroke-linejoin="round"/>
    
    <!-- Neural connections -->
    <circle cx="6" cy="8" r="0.8" fill="#1a1a1a"/>
    <circle cx="10" cy="8" r="0.8" fill="#1a1a1a"/>
    <circle cx="8" cy="11" r="0.8" fill="#1a1a1a"/>
    <circle cx="6" cy="14" r="0.8" fill="#1a1a1a"/>
    <circle cx="10" cy="14" r="0.8" fill="#1a1a1a"/>
    
    <!-- Connection lines -->
    <line x1="6" y1="8" x2="8" y2="11" stroke="#1a1a1a" stroke-width="1" opacity="0.6"/>
    <line x1="10" y1="8" x2="8" y2="11" stroke="#1a1a1a" stroke-width="1" opacity="0.6"/>
    <line x1="8" y1="11" x2="6" y2="14" stroke="#1a1a1a" stroke-width="1" opacity="0.6"/>
    <line x1="8" y1="11" x2="10" y2="14" stroke="#1a1a1a" stroke-width="1" opacity="0.6"/>
  </g>
  
  <!-- JM initials -->
  <text x="16" y="26" text-anchor="middle" font-family="Inter, sans-serif" font-size="6" font-weight="800" fill="#1a1a1a">JM</text>
</svg>